<?xml version="1.0" encoding="utf-8"?>
<!-- Generator: Adobe Illustrator 24.0.3, SVG Export Plug-In . SVG Version: 6.00 Build 0)  -->
<svg version="1.1" id="Layer_1" xmlns="http://www.w3.org/2000/svg" xmlns:xlink="http://www.w3.org/1999/xlink" x="0px" y="0px"
	 viewBox="0 0 280.39999 280.39999" enable-background="new 0 0 280.39999 280.39999" xml:space="preserve">
<g>
	<polygon fill="#333333" points="0,0 280.39999,280.39999 280.39999,0 	"/>
	<g>
		<path fill="#FFFFFF" d="M75.4,41.4c-1.5,1.5-3.4,2.4-5.5,2.6v2.8l-1,1.2l-1.1-1.1v-2.8c-2.2-0.2-4-1.1-5.5-2.7
			c-1.8-1.8-2.7-4-2.7-6.6s0.9-4.7,2.7-6.6c1.8-1.8,4-2.7,6.6-2.7s4.7,0.9,6.6,2.7c1.8,1.8,2.7,4,2.7,6.6S77.2,39.6,75.4,41.4z
			 M63.8,39.9c1.1,1.1,2.5,1.8,4,2v-7.1h2.1v7.1c1.6-0.2,2.9-0.9,4-2c1.4-1.4,2.1-3.1,2.1-5.1s-0.7-3.7-2.1-5.1s-3.1-2.1-5.1-2.1
			s-3.7,0.7-5.1,2.1s-2.1,3.1-2.1,5.1C61.7,36.9,62.4,38.5,63.8,39.9z"/>
		<path fill="#FFFFFF" d="M89.9,48.3l1.5,1.5L86.2,55c-1.4,1.4-3.1,2.1-5.1,2.1S77.4,56.4,76,55c-1.4-1.4-2.1-3.1-2.1-5.1
			s0.7-3.7,2.1-5.1l5.2-5.2l1.5,1.5l-5.2,5.2c-1,1-1.5,2.2-1.5,3.7c0,1.4,0.5,2.7,1.5,3.7s2.2,1.5,3.7,1.5c1.4,0,2.7-0.5,3.7-1.5
			L89.9,48.3z"/>
		<path fill="#FFFFFF" d="M93.8,49.8l1.5-1.5l1.5,1.5l-1.5,1.5L93.8,49.8z M82.2,61.3L92.5,51l1.5,1.5L83.7,62.8L82.2,61.3z"/>
		<path fill="#FFFFFF" d="M98.8,60.4l-3.7-3.7l-3.5,3.5l0,0c0,0,0,0-0.1,0.1c0,0-0.1,0-0.1,0.1c-1,1-1.5,2.2-1.5,3.7
			c0,1.4,0.5,2.7,1.5,3.7L90,69.1c-1.4-1.4-2.1-3.1-2.1-5.1s0.7-3.7,2.1-5.1l7.9-7.9l1.5,1.5l-2.7,2.7l3.7,3.7L98.8,60.4z"/>
		<path fill="#FFFFFF" d="M113.3,84.6l1.7,1.7c-1.7,0.7-3.4,0.8-5.2,0.5c-1.8-0.3-3.4-1.2-4.7-2.5c-1.8-1.8-2.7-3.9-2.7-6.5
			c0-2.5,0.9-4.7,2.7-6.5c1.8-1.8,4-2.7,6.5-2.7c2.6,0,4.7,0.9,6.5,2.6c1.3,1.3,2.1,2.9,2.5,4.7c0.3,1.8,0.2,3.5-0.5,5.2l-1.7-1.7
			c0.3-1.2,0.3-2.4,0-3.6s-0.9-2.2-1.8-3.1c-1.4-1.4-3-2.1-5-2c-2,0-3.6,0.7-5,2.1s-2.1,3.1-2.1,5c0,2,0.7,3.6,2,5
			c0.9,0.9,1.9,1.5,3.1,1.8C110.9,84.8,112.1,84.9,113.3,84.6z"/>
		<path fill="#FFFFFF" d="M119.5,95.7l-1.5,1.5c-1.4-1.4-2.1-3.1-2.1-5.1s0.7-3.7,2.1-5.1l7.9-7.9l1.5,1.5l-7.8,7.8l0,0
			c-0.1,0.1-0.1,0.1-0.2,0.1c-1,1-1.5,2.2-1.5,3.7S118.5,94.7,119.5,95.7z"/>
		<path fill="#FFFFFF" d="M136.89999,98.5c0,2-0.7,3.7-2.2,5.1c-1.39999,1.4-3.10001,2.1-5.10001,2.1c-1.39999,0-2.7-0.3-3.9-1.1
			l-0.1-0.1l0,0c0,0-0.1,0-0.1-0.1l0,0c0,0-0.1,0-0.1-0.1l0,0l0,0c0,0-0.1,0-0.1-0.1l0,0c0,0,0,0-0.1-0.1l0,0c0,0,0,0-0.1-0.1l0,0
			c0,0,0,0-0.1-0.1l0,0c0,0,0,0-0.1-0.1l0,0l-0.1-0.1l-0.1-0.1l0,0l-0.1-0.1l0,0c0-0.1-0.1-0.1-0.1-0.1l0,0l-0.1-0.1l0,0
			c0-0.1-0.1-0.1-0.1-0.1l0,0c0,0,0-0.1-0.1-0.1l0,0l-0.1-0.1l0,0l-0.1-0.1c0-0.1-0.1-0.1-0.1-0.2c-0.7-1.2-1.1-2.5-1.1-3.9
			c0-2,0.7-3.7,2.1-5.1s3.1-2.1,5.1-2.1c1.39999,0,2.7,0.4,3.89999,1.1c0.10001,0,0.10001,0.1,0.2,0.1l0.10001,0.1l0,0l0.10001,0.1
			l0,0l0.10001,0.1l0,0c0,0,0.10001,0,0.10001,0.1l0,0l0,0c0,0,0.10001,0,0.10001,0.1l0,0c0,0,0,0,0.10001,0.1l0,0
			c0,0,0,0,0.10001,0.1l0,0l0.10001,0.1l0.10001,0.1l0,0l0.10001,0.1l0,0l0.10001,0.1l0,0c0,0.1,0.10001,0.1,0.10001,0.1l0,0
			l0.10001,0.1l0,0l0.10001,0.1l0,0l0.10001,0.1l0,0l0.10001,0.1l0,0l0.10001,0.1C136.5,95.8,136.89999,97.1,136.89999,98.5z
			 M124.4,98.4c0,1.4,0.5,2.7,1.5,3.7s2.2,1.5,3.7,1.5c1.39999,0,2.7-0.5,3.7-1.5s1.5-2.2,1.5-3.7c0-1.4-0.5-2.7-1.5-3.7
			s-2.2-1.5-3.7-1.5c-1.39999,0-2.7,0.5-3.7,1.5C124.9,95.8,124.4,97,124.4,98.4z"/>
		<path fill="#FFFFFF" d="M146.3,104.8c1.39999,1.4,2.10001,3.1,2.10001,5.1s-0.7,3.7-2.10001,5.1L141.2,120.1l-1.5-1.5l5.10001-5.1
			c1-1,1.5-2.2,1.5-3.7c0-1.4-0.5-2.7-1.5-3.7s-2.2-1.5-3.7-1.5c-1.39999,0-2.7,0.5-3.7,1.5L132.3,111.2l-1.5-1.5l5.10001-5.1
			l5.2-5.2l1.5,1.5l-1.60001,1.6C143.10001,102.6,144.8,103.3,146.3,104.8z"/>
		<path fill="#FFFFFF" d="M153.89999,109.9l1.5-1.5l1.5,1.5l-1.5,1.5L153.89999,109.9z M142.3,121.4l10.3-10.3l1.5,1.5l-10.3,10.3
			L142.3,121.4z"/>
		<path fill="#FFFFFF" d="M160.39999,119c1.39999,1.4,2.10001,3.1,2.10001,5.1s-0.7,3.7-2.10001,5.1L155.29999,134.3l-1.5-1.5
			l5.10001-5.1c1-1,1.5-2.2,1.5-3.7c0-1.4-0.5-2.7-1.5-3.7s-2.2-1.5-3.7-1.5c-1.39999,0-2.7,0.5-3.7,1.5l-5.10001,5.1l-1.5-1.5
			l5.10001-5.1l5.2-5.2l1.5,1.5l-1.60001,1.6C157.3,116.8,159,117.5,160.39999,119z"/>
		<path fill="#FFFFFF" d="M175.5,134.2l1.5,1.5l-11.7,11.7C163.90001,148.79999,162.2,149.5,160.2,149.5s-3.7-0.7-5.10001-2.10001
			c-1.39999-1.39999-2.10001-3.10001-2.10001-5.10001s0.7-3.7,2.10001-5.10001l1.5,1.5c-1,1-1.5,2.2-1.5,3.60001
			c0,1.39999,0.5,2.7,1.5,3.7s2.2,1.5,3.7,1.5c1.39999,0,2.7-0.5,3.60001-1.5l3-3c-2,0-3.8-0.7-5.2-2.10001
			c-1.39999-1.39999-2.10001-3.10001-2.10001-5.10001s0.7-3.7,2.10001-5.10001c1.39999-1.39999,3.10001-2.10001,5.10001-2.10001
			s3.7,0.7,5.10001,2.10001c1.39999,1.39999,2.2,3.2,2.2,5.2L175.5,134.2z M161.60001,135.60001c0,1.39999,0.5,2.7,1.5,3.7
			s2.2,1.5,3.7,1.5s2.7-0.5,3.7-1.5s1.5-2.2,1.5-3.7c0-1.39999-0.5-2.7-1.5-3.7s-2.2-1.5-3.7-1.5c-1.39999,0-2.7,0.5-3.7,1.5
			S161.60001,134.2,161.60001,135.60001z"/>
		<path fill="#FFFFFF" d="M187.8,144c2.2,0,4.10001,0.8,5.60001,2.3c1.60001,1.60001,2.3,3.39999,2.3,5.60001
			c0,2.2-0.8,4.10001-2.3,5.60001l-7.5,7.5l-1.5-1.5l4.5-4.5l-8.3-8.3l-4.5,4.5l-1.5-1.5l7.5-7.5
			C183.8,144.8,185.60001,144,187.8,144z M182.10001,149.39999l8.3,8.3l1.5-1.5c1.2-1.2,1.7-2.5,1.7-4.2
			c0-1.60001-0.60001-3-1.7-4.10001c-1.10001-1.10001-2.5-1.7-4.2-1.7c-1.60001,0-3,0.60001-4.2,1.7L182.10001,149.39999z"/>
		<path fill="#FFFFFF" d="M203.3,161.8l-1.5,1.5c-1-1-2.2-1.5-3.7-1.5c-1.39999,0-2.7,0.5-3.7,1.5L189.3,168.40001l-1.5-1.5
			l10.3-10.3l1.5,1.5L198,159.70001C200.10001,159.7,201.89999,160.39999,203.3,161.8z"/>
		<path fill="#FFFFFF" d="M211.8,173.39999c0,2-0.7,3.7-2.2,5.10001c-1.39999,1.39999-3.10001,2.10001-5.10001,2.10001
			c-1.39999,0-2.7-0.3-3.89999-1.10001L200.5,179.39999l0,0c0,0-0.10001,0-0.10001-0.10001l0,0c0,0-0.10001,0-0.10001-0.10001l0,0
			l0,0c0,0-0.10001,0-0.10001-0.10001l0,0c0,0,0,0-0.10001-0.10001l0,0c0,0,0,0-0.10001-0.10001l0,0c0,0,0,0-0.10001-0.10001l0,0
			c0,0,0,0-0.10001-0.10001l0,0l-0.10001-0.10001l-0.10001-0.10001l0,0l-0.10001-0.10001l0,0
			c0-0.10001-0.10001-0.10001-0.10001-0.10001l0,0l-0.10001-0.10001l0,0c0-0.10001-0.10001-0.10001-0.10001-0.10001l0,0
			c0,0,0-0.10001-0.10001-0.10001l0,0l-0.10001-0.10001l0,0l-0.10001-0.10001c0-0.10001-0.10001-0.10001-0.10001-0.2
			c-0.7-1.2-1.10001-2.5-1.10001-3.89999c0-2,0.7-3.7,2.10001-5.10001c1.39999-1.39999,3.10001-2.10001,5.10001-2.10001
			c1.39999,0,2.7,0.39999,3.89999,1.10001c0.10001,0,0.10001,0.10001,0.2,0.10001l0.10001,0.10001l0,0l0.10001,0.10001l0,0
			l0.10001,0.10001l0,0c0,0,0.10001,0,0.10001,0.10001l0,0l0,0c0,0,0.10001,0,0.10001,0.10001l0,0c0,0,0,0,0.10001,0.10001l0,0
			c0,0,0,0,0.10001,0.10001l0,0l0.10001,0.10001l0.10001,0.10001l0,0l0.10001,0.10001l0,0l0.10001,0.10001l0,0
			c0,0.10001,0.10001,0.10001,0.10001,0.10001l0,0l0.10001,0.10001l0,0l0.10001,0.10001l0,0l0.10001,0.10001l0,0l0.10001,0.10001
			l0,0l0.10001,0.10001C211.5,170.7,211.8,172,211.8,173.39999z M199.3,173.3c0,1.39999,0.5,2.7,1.5,3.7s2.2,1.5,3.7,1.5
			c1.39999,0,2.7-0.5,3.7-1.5s1.5-2.2,1.5-3.7c0-1.39999-0.5-2.7-1.5-3.7s-2.2-1.5-3.7-1.5c-1.39999,0-2.7,0.5-3.7,1.5
			C199.8,170.7,199.3,171.89999,199.3,173.3z"/>
		<path fill="#FFFFFF" d="M224.89999,183.3l1.5,1.5l-5.2,5.2c-1.39999,1.39999-3.10001,2.10001-5.10001,2.10001
			s-3.7-0.7-5.10001-2.10001c-1.39999-1.39999-2.10001-3.10001-2.10001-5.10001s0.7-3.7,2.10001-5.10001l5.2-5.2l1.5,1.5l-5.2,5.2
			c-1,1-1.5,2.2-1.5,3.7c0,1.39999,0.5,2.7,1.5,3.7s2.2,1.5,3.7,1.5c1.39999,0,2.7-0.5,3.7-1.5L224.89999,183.3z"/>
		<path fill="#FFFFFF" d="M232.7,191.2C234.09999,192.59999,234.8,194.3,234.8,196.3s-0.7,3.7-2.10001,5.10001l-5.10001,5.10001
			l-1.5-1.5l5.10001-5.10001c1-1,1.5-2.2,1.5-3.7c0-1.39999-0.5-2.7-1.5-3.7s-2.2-1.5-3.7-1.5c-1.39999,0-2.7,0.5-3.7,1.5
			L218.7,197.60002l-1.5-1.5l5.10001-5.10001l5.2-5.2l1.5,1.5l-1.60001,1.60001C229.5,189,231.2,189.8,232.7,191.2z"/>
		<path fill="#FFFFFF" d="M250.60001,203.60001l1.5,1.5l-13,13l-1.5-1.5l1.5-1.5c-2,0-3.8-0.7-5.2-2.10001
			c-1.39999-1.39999-2.10001-3.10001-2.10001-5.10001s0.7-3.7,2.10001-5.10001c1.39999-1.39999,3.10001-2.10001,5.10001-2.10001
			s3.7,0.7,5.10001,2.10001c1.39999,1.39999,2.10001,3.2,2.10001,5.2L250.60001,203.60001z M233.8,207.8c0,1.39999,0.5,2.7,1.5,3.7
			s2.2,1.5,3.7,1.5c1.39999,0,2.7-0.5,3.7-1.5s1.5-2.2,1.5-3.7c0-1.39999-0.5-2.7-1.5-3.7s-2.2-1.5-3.7-1.5
			c-1.39999,0-2.7,0.5-3.7,1.5C234.3,205.2,233.8,206.39999,233.8,207.8z"/>
		<path fill="#FFFFFF" d="M243.2,216.39999L253.3,206.29999l1.5,1.5L244.7,217.89999L243.2,216.39999z M240.2,219.39999l1.5-1.5
			l1.5,1.5l-1.5,1.5L240.2,219.39999z"/>
	</g>
</g>
</svg>
